<?xml version="1.0" standalone="no"?>
<!DOCTYPE svg PUBLIC "-//W3C//DTD SVG 20010904//EN"
 "http://www.w3.org/TR/2001/REC-SVG-20010904/DTD/svg10.dtd">
<svg version="1.0" xmlns="http://www.w3.org/2000/svg"
 width="236.000000pt" height="236.000000pt" viewBox="0 0 236.000000 236.000000"
 preserveAspectRatio="xMidYMid meet">
<metadata>
Created by potrace 1.11, written by Peter Selinger 2001-2013
</metadata>
<g transform="translate(0.000000,236.000000) scale(0.100000,-0.100000)"
fill="#000000" stroke="none">
<path d="M0 1180 l0 -1180 1180 0 1180 0 0 1180 0 1180 -1180 0 -1180 0 0
-1180z m1494 1034 c312 -114 354 -132 386 -164 21 -21 260 -457 326 -595 21
-42 34 -85 34 -108 0 -35 -41 -311 -70 -467 -5 -30 -16 -94 -24 -141 -22 -136
-38 -162 -163 -270 -356 -304 -407 -345 -450 -362 -42 -16 -78 -18 -382 -15
l-336 3 -45 27 c-83 49 -518 426 -544 471 -19 32 -33 93 -60 262 -20 121 -46
272 -56 337 -11 64 -20 134 -20 157 0 44 13 72 210 436 121 226 147 266 187
292 48 31 636 242 677 243 26 0 140 -37 330 -106z"/>
<path d="M1140 2240 c6 -11 14 -20 19 -20 4 0 16 9 26 20 18 20 17 20 -19 20
-34 0 -36 -2 -26 -20z"/>
<path d="M1052 2218 c6 -16 36 -34 44 -25 9 9 -15 37 -33 37 -8 0 -13 -5 -11
-12z"/>
<path d="M1240 2215 c-21 -25 -1 -31 23 -7 17 18 18 22 5 22 -8 0 -21 -7 -28
-15z"/>
<path d="M825 2146 c-143 -53 -171 -66 -173 -84 -2 -12 2 -22 9 -22 14 0 351
121 362 130 4 4 -1 14 -10 22 -17 15 -31 12 -188 -46z"/>
<path d="M1318 2190 c-19 -15 -20 -20 -8 -24 192 -71 348 -126 358 -126 8 0
12 9 10 22 -3 23 -24 33 -245 113 -91 33 -93 34 -115 15z"/>
<path d="M1132 2153 c-10 -4 -9 -9 4 -24 22 -24 36 -24 51 0 10 16 9 20 -3 25
-18 7 -34 7 -52 -1z"/>
<path d="M860 2050 c-195 -73 -205 -78 -208 -104 -4 -34 -26 -39 250 63 114
42 206 80 205 85 -2 5 -12 15 -23 21 -16 10 -51 0 -224 -65z"/>
<path d="M1239 2107 l-17 -22 207 -76 c276 -102 251 -96 251 -61 0 29 -2 30
-197 100 -109 38 -205 73 -213 76 -9 3 -22 -4 -31 -17z"/>
<path d="M580 2035 c0 -14 5 -25 10 -25 6 0 10 11 10 25 0 14 -4 25 -10 25 -5
0 -10 -11 -10 -25z"/>
<path d="M1730 2035 c0 -17 5 -25 13 -22 6 2 12 12 12 22 0 10 -6 20 -12 23
-8 2 -13 -6 -13 -23z"/>
<path d="M890 1946 l-245 -93 -38 -69 c-21 -38 -86 -155 -143 -260 l-105 -191
35 -209 c19 -115 42 -249 50 -298 9 -49 16 -90 16 -92 0 -2 95 -85 211 -184
l211 -180 284 0 285 0 207 177 c114 97 208 177 209 178 2 1 25 138 53 306 l51
304 -140 260 -139 260 -254 92 c-139 51 -264 92 -278 92 -14 0 -135 -42 -270
-93z m375 -215 c49 -23 99 -74 119 -121 8 -20 18 -68 21 -108 l8 -72 61 0
c168 -1 279 -135 245 -298 -9 -48 -19 -65 -63 -108 -57 -58 -98 -74 -186 -74
l-56 0 -10 -90 c-9 -72 -16 -97 -40 -131 -102 -147 -322 -136 -408 20 -20 38
-29 71 -33 125 l-6 74 -78 4 c-98 6 -158 39 -204 113 -26 43 -30 57 -30 124 0
58 5 83 19 106 58 89 117 125 224 134 l73 6 4 67 c2 37 12 87 23 110 20 47 77
103 126 124 45 20 143 17 191 -5z"/>
<path d="M1095 1686 c-31 -14 -85 -63 -85 -77 0 -5 11 -16 25 -25 23 -15 25
-14 58 19 54 53 111 57 173 11 20 -15 35 -19 45 -14 11 7 7 16 -19 43 -51 53
-134 71 -197 43z"/>
<path d="M1139 1570 l-24 -19 30 -24 29 -24 39 25 39 26 -22 18 c-29 23 -62
23 -91 -2z"/>
<path d="M980 1484 c0 -97 -6 -104 -95 -104 -40 0 -76 -4 -79 -8 -3 -5 2 -18
10 -30 14 -20 24 -22 125 -22 l109 0 0 94 c0 93 -1 95 -29 115 -16 12 -32 21
-35 21 -3 0 -6 -30 -6 -66z"/>
<path d="M1327 1543 c-4 -3 -7 -55 -7 -115 l0 -108 89 0 c81 0 91 2 105 22 22
30 7 38 -76 38 -81 0 -88 8 -88 104 0 61 -6 76 -23 59z"/>
<path d="M1233 1460 c-21 -19 -23 -30 -23 -130 l0 -110 109 0 c105 0 109 1
125 25 l16 25 -89 0 c-61 0 -92 4 -98 13 -4 6 -10 54 -13 105 l-5 93 -22 -21z"/>
<path d="M1110 1385 c0 -113 -2 -115 -115 -115 -52 0 -95 -3 -95 -6 0 -3 5
-14 10 -25 10 -17 22 -19 121 -19 l110 0 -3 117 c-2 82 -7 118 -15 121 -10 3
-13 -16 -13 -73z"/>
<path d="M712 1320 c-77 -72 -66 -235 18 -280 16 -8 22 -6 35 14 16 23 15 27
-6 55 -31 42 -30 117 1 161 21 30 21 32 5 51 -22 24 -26 24 -53 -1z"/>
<path d="M1571 1326 c-10 -12 -7 -18 14 -32 35 -23 55 -64 55 -115 0 -36 -6
-47 -41 -81 -36 -34 -40 -42 -27 -54 12 -12 17 -12 37 2 26 19 71 107 71 142
0 33 -27 93 -57 125 -31 31 -36 32 -52 13z"/>
<path d="M797 1221 c-15 -36 -13 -64 8 -81 10 -8 17 -5 29 12 21 30 20 51 -3
79 l-20 24 -14 -34z"/>
<path d="M1516 1228 c-22 -30 -20 -48 7 -82 22 -27 24 -27 40 -12 9 10 18 25
18 34 5 73 -32 107 -65 60z"/>
<path d="M910 1141 c-5 -11 -10 -22 -10 -24 0 -3 43 -7 95 -9 71 -2 98 -7 105
-18 5 -8 10 -53 10 -99 0 -73 2 -82 15 -71 12 10 15 37 15 126 l0 114 -110 0
c-98 0 -110 -2 -120 -19z"/>
<path d="M1217 1153 c-4 -3 -7 -55 -7 -114 0 -101 2 -109 23 -124 l22 -16 5
95 c3 52 9 98 13 103 5 4 49 10 97 11 l89 4 -16 24 c-14 23 -21 24 -117 24
-57 0 -106 -3 -109 -7z"/>
<path d="M820 1041 c-19 -37 -12 -41 65 -41 89 0 95 -6 95 -104 0 -36 3 -66 6
-66 3 0 19 8 35 17 29 17 29 18 29 115 l0 98 -110 0 c-98 0 -110 -2 -120 -19z"/>
<path d="M1322 943 c2 -82 7 -118 16 -121 9 -3 12 15 12 68 0 104 5 110 94
110 40 0 75 3 79 6 3 4 -1 17 -10 30 -14 22 -22 24 -104 24 l-90 0 3 -117z"/>
<path d="M1148 852 c-33 -20 -34 -24 -8 -47 24 -22 61 -23 90 -2 l21 15 -34
26 c-40 31 -35 30 -69 8z"/>
<path d="M1036 791 c-34 -21 -33 -33 9 -69 61 -55 169 -57 233 -5 42 34 50 51
27 59 -10 4 -26 -3 -41 -17 -21 -19 -36 -24 -81 -24 -50 0 -57 3 -88 36 -32
35 -33 36 -59 20z"/>
<path d="M497 2012 c-19 -20 -22 -42 -8 -42 25 0 41 14 41 36 0 29 -11 31 -33
6z"/>
<path d="M1810 2000 c0 -13 7 -20 20 -20 23 0 26 10 8 28 -18 18 -28 15 -28
-8z"/>
<path d="M566 1934 c-23 -22 -20 -34 9 -34 20 0 25 5 25 25 0 29 -12 32 -34 9z"/>
<path d="M1730 1926 c0 -22 4 -26 31 -26 30 0 31 1 17 23 -22 33 -48 34 -48 3z"/>
<path d="M1857 1923 c-14 -13 -6 -23 18 -23 28 0 34 15 9 24 -19 7 -19 7 -27
-1z"/>
<path d="M435 1910 c-4 -6 5 -10 19 -10 14 0 26 5 26 10 0 6 -9 10 -19 10 -11
0 -23 -4 -26 -10z"/>
<path d="M1760 1846 c0 -15 218 -417 235 -435 11 -11 15 -10 25 9 12 23 18 11
-117 265 -30 55 -61 114 -70 132 -11 21 -25 32 -44 35 -17 3 -29 0 -29 -6z"/>
<path d="M404 1842 c-10 -7 -35 -50 -104 -177 -18 -33 -41 -74 -52 -92 -15
-25 -17 -37 -8 -53 6 -11 15 -20 20 -20 6 0 163 285 188 342 5 10 -30 10 -44
0z"/>
<path d="M513 1838 c-6 -7 -56 -99 -112 -205 -86 -163 -100 -195 -91 -213 6
-11 14 -20 18 -20 7 0 234 413 240 437 4 17 -42 17 -55 1z"/>
<path d="M1943 1728 c36 -68 79 -147 94 -175 31 -58 37 -62 52 -35 8 15 -8 51
-73 173 -74 137 -86 154 -111 157 l-27 4 65 -124z"/>
<path d="M195 1470 c-4 -7 2 -22 14 -33 15 -16 21 -18 21 -7 -1 24 -27 53 -35
40z"/>
<path d="M2110 1461 c-16 -30 -2 -48 17 -21 11 15 12 25 5 32 -7 7 -14 3 -22
-11z"/>
<path d="M157 1394 c-4 -4 -7 -20 -7 -36 0 -26 2 -28 20 -18 11 6 20 14 20 18
0 15 -26 43 -33 36z"/>
<path d="M2154 1386 c-7 -20 2 -46 16 -46 13 0 13 47 0 55 -6 3 -13 -1 -16 -9z"/>
<path d="M255 1359 c-9 -28 9 -46 29 -30 12 10 13 16 3 32 -15 25 -24 24 -32
-2z"/>
<path d="M2045 1359 c-7 -20 7 -38 28 -39 9 0 9 22 1 44 -9 22 -21 20 -29 -5z"/>
<path d="M172 1278 c-19 -19 -14 -30 8 -18 11 6 20 15 20 20 0 14 -14 12 -28
-2z"/>
<path d="M2143 1273 c9 -9 19 -14 23 -11 10 10 -6 28 -24 28 -15 0 -15 -1 1
-17z"/>
<path d="M280 1265 c-14 -16 -15 -3 38 -329 25 -151 30 -170 50 -179 12 -6 25
-8 27 -5 3 3 -4 63 -16 134 -12 71 -31 187 -43 258 -11 71 -26 131 -32 133 -6
2 -17 -3 -24 -12z"/>
<path d="M2017 1273 c-4 -3 -7 -18 -7 -32 0 -14 -7 -62 -15 -106 -29 -156 -64
-379 -60 -383 8 -9 44 10 49 26 8 25 76 447 76 470 0 11 -7 23 -16 26 -19 7
-19 7 -27 -1z"/>
<path d="M188 1206 c-16 -12 -15 -26 16 -217 32 -200 33 -204 57 -207 l25 -3
-18 118 c-10 65 -25 159 -33 208 -8 50 -15 96 -15 103 0 15 -10 15 -32 -2z"/>
<path d="M2115 1198 c-3 -13 -20 -112 -38 -220 -30 -180 -32 -198 -16 -198 9
0 21 6 27 13 7 9 72 368 72 401 0 3 -9 10 -20 16 -16 9 -20 7 -25 -12z"/>
<path d="M252 718 c3 -7 15 -15 27 -16 16 -3 22 1 19 10 -3 7 -15 15 -27 16
-16 3 -22 -1 -19 -10z"/>
<path d="M2037 723 c-14 -13 -6 -24 15 -21 27 4 36 28 11 28 -11 0 -23 -3 -26
-7z"/>
<path d="M360 692 c0 -19 18 -42 32 -42 15 0 8 48 -8 54 -23 9 -24 8 -24 -12z"/>
<path d="M1948 702 c-19 -4 -25 -37 -9 -46 12 -8 34 20 29 36 -2 8 -11 12 -20
10z"/>
<path d="M447 653 c-4 -3 -7 -16 -7 -27 0 -20 19 -37 284 -262 50 -43 63 -50
78 -40 10 6 18 15 18 21 0 5 -30 35 -67 65 -37 30 -112 93 -168 140 -129 110
-131 111 -138 103z"/>
<path d="M1692 504 c-149 -127 -181 -158 -171 -170 6 -8 17 -14 24 -14 10 0
272 216 337 279 16 15 16 61 -1 61 -4 0 -89 -70 -189 -156z"/>
<path d="M272 628 c18 -26 33 -27 33 0 0 10 -9 18 -24 20 -24 4 -24 3 -9 -20z"/>
<path d="M2026 641 c-7 -11 3 -41 13 -41 4 0 13 11 19 25 10 22 9 25 -8 25
-10 0 -21 -4 -24 -9z"/>
<path d="M351 578 c-9 -24 -6 -38 8 -38 12 0 20 49 10 56 -5 3 -13 -5 -18 -18z"/>
<path d="M1965 588 c-4 -10 -4 -26 0 -35 8 -17 8 -17 12 0 3 9 3 25 0 35 -4
16 -4 16 -12 0z"/>
<path d="M417 533 c-21 -21 4 -51 134 -162 119 -101 145 -119 160 -110 11 5
19 13 19 17 0 7 -295 262 -303 262 -2 0 -7 -3 -10 -7z"/>
<path d="M1853 499 c-26 -23 -59 -51 -73 -63 -14 -12 -59 -50 -100 -85 -41
-35 -76 -67 -78 -70 -1 -3 7 -12 18 -18 17 -11 34 0 159 105 115 97 140 122
140 145 1 15 -3 27 -8 27 -6 0 -31 -19 -58 -41z"/>
<path d="M920 285 l0 -25 251 0 250 0 -3 23 -3 22 -247 3 -248 2 0 -25z"/>
<path d="M841 291 c-16 -10 -6 -31 15 -31 8 0 14 9 14 20 0 22 -7 25 -29 11z"/>
<path d="M1470 280 c0 -13 5 -20 13 -17 6 2 12 10 12 17 0 7 -6 15 -12 18 -8
2 -13 -5 -13 -18z"/>
<path d="M1560 236 c0 -2 7 -7 16 -10 8 -3 12 -2 9 4 -6 10 -25 14 -25 6z"/>
<path d="M800 190 c-13 -9 -13 -11 0 -20 15 -10 40 -14 40 -6 0 11 -13 36 -19
36 -3 0 -13 -5 -21 -10z"/>
<path d="M920 175 l0 -25 248 2 247 3 3 23 3 22 -250 0 -251 0 0 -25z"/>
<path d="M1500 180 c0 -23 22 -27 39 -6 9 11 8 15 -5 20 -26 10 -34 7 -34 -14z"/>
</g>
</svg>
