<?xml version="1.0" standalone="no"?>
<!DOCTYPE svg PUBLIC "-//W3C//DTD SVG 20010904//EN"
 "http://www.w3.org/TR/2001/REC-SVG-20010904/DTD/svg10.dtd">
<svg version="1.0" xmlns="http://www.w3.org/2000/svg"
 width="700.000000pt" height="700.000000pt" viewBox="0 0 700.000000 700.000000"
 preserveAspectRatio="xMidYMid meet">
<metadata>
Created by potrace 1.14, written by Peter Selinger 2001-2017
</metadata>
<g transform="translate(0.000000,700.000000) scale(0.100000,-0.100000)"
fill="#000000" stroke="none">
<path d="M0 3500 l0 -3500 3500 0 3500 0 0 3500 0 3500 -3500 0 -3500 0 0
-3500z m5465 1308 c2 -13 27 -174 55 -358 28 -184 53 -347 56 -362 9 -45 -10
-32 -66 45 -75 101 -241 263 -329 321 -91 60 -200 110 -300 139 -63 18 -102
22 -226 22 -136 0 -155 -2 -200 -23 -91 -42 -134 -100 -154 -207 -7 -36 -11
-211 -11 -453 l0 -394 333 4 c315 4 335 5 397 27 118 41 213 120 277 228 13
24 27 43 29 43 2 0 4 -159 4 -352 l-1 -353 -21 30 c-46 63 -145 160 -202 197
-112 73 -146 78 -502 78 l-314 0 0 -548 c0 -353 4 -569 11 -607 19 -105 69
-177 162 -237 l52 -33 -223 -3 c-122 -1 -322 -1 -444 0 l-223 3 42 27 c63 41
113 97 142 158 l26 55 0 1105 0 1105 -33 67 c-18 36 -49 81 -68 98 l-36 31
-31 -28 c-92 -85 -156 -180 -215 -319 -21 -49 -234 -592 -473 -1207 -296 -761
-438 -1117 -447 -1115 -8 2 -222 521 -483 1168 -258 641 -489 1206 -514 1255
-59 118 -122 197 -197 246 l-61 39 486 0 c268 0 487 -2 487 -5 0 -2 -17 -13
-37 -24 -46 -23 -94 -73 -118 -121 -23 -44 -31 -165 -16 -225 12 -49 618
-1605 630 -1617 9 -10 607 1549 622 1619 25 123 -38 253 -165 335 l-59 38
1039 0 c1127 0 1127 0 1220 55 24 14 51 37 61 50 22 31 31 31 38 3z"/>
</g>
</svg>
