<svg xmlns="http://www.w3.org/2000/svg" fill="none" viewBox="0 0 80 80">
  <path fill="#EB5088" d="M0 0h80v80H0z"/>
  <path fill="#fff" d="M39.135 31.416 29.09 57.246h-.287L18.43 31.498c-.656-1.64-1.271-2.829-1.845-3.567-.547-.738-1.203-1.257-1.968-1.558v-.123h11.111v.123a4.06 4.06 0 0 0-1.394.984c-.383.437-.615 1.011-.697 1.722-.082.683.055 1.49.41 2.419l7.421 18.942-1.353 1.107 7.708-20.09c.328-.875.396-1.654.205-2.337-.191-.71-.533-1.298-1.025-1.763-.465-.465-.957-.793-1.476-.984v-.123h7.462v.123c-.465.191-.93.506-1.394.943-.437.41-.861.957-1.271 1.64-.41.656-.806 1.476-1.189 2.46Zm2.373 25.461a4.584 4.584 0 0 0 1.722-1.435c.465-.656.697-1.503.697-2.542V30.35c0-.93-.205-1.75-.615-2.46-.383-.71-.984-1.216-1.804-1.517v-.123h17.384c.765 0 1.435-.123 2.01-.369a3.275 3.275 0 0 0 1.393-1.107h.123l1.353 8.815-.164.082c-.956-1.421-1.981-2.61-3.075-3.567-1.093-.957-2.268-1.681-3.526-2.173-1.23-.52-2.556-.779-3.977-.779-1.394 0-2.405.314-3.034.943-.628.601-.943 1.544-.943 2.829v8.61h6.11c1.257 0 2.35-.26 3.28-.779.956-.547 1.748-1.435 2.377-2.665h.082v7.995h-.082c-.656-1.011-1.449-1.831-2.378-2.46-.93-.656-2.009-.984-3.239-.984h-6.15V52.9c0 1.039.233 1.886.697 2.542a4.506 4.506 0 0 0 1.763 1.435V57H41.508v-.123Z"/>
</svg>